<svg  viewBox="0 -48 512 511"  xmlns="http://www.w3.org/2000/svg"><path d="m25 196.066406h15v52.761719h-15zm0 0"/><path d="m184.058594 246.082031-7.5 12.992188 71.941406 41.535156v83.070313h15v-83.070313l71.941406-41.535156-7.5-12.992188-71.941406 41.535157zm0 0"/><path d="m263.5 123.988281 71.941406-41.535156-7.5-12.988281-71.941406 41.53125-71.949219-41.53125-7.5 12.988281 71.949219 41.535156v57.464844l-95.691406 55.25v119.15625l103.191406 59.578125 103.191406-59.578125v-119.160156l-95.691406-55.246094zm80.691406 223.210938-88.191406 50.917969-88.191406-50.917969v-101.835938l88.191406-50.917969 88.191406 50.917969zm0 0"/><path d="m110.691406 295.417969v-83.070313l71.949219-41.535156-7.5-12.992188-71.949219 41.539063-71.941406-41.535156-7.5 12.988281 71.941406 41.535156v83.070313zm0 0"/><path d="m416.308594 295.417969v-83.070313l71.941406-41.535156-7.5-12.988281-71.941406 41.535156-71.949219-41.539063-7.5 12.992188 71.949219 41.535156v83.070313zm0 0"/><path d="m167.804688 68.738281 88.191406-50.917969 88.191406 50.917969v38.664063h15v-47.324219l-103.191406-59.578125-103.191406 59.578125v47.320313h15zm0 0"/><path d="m408.808594 88.859375-103.195313 59.578125v47.226562h15v-38.566406l88.195313-50.917968 88.191406 50.917968v101.835938l-88.191406 50.917968-33.367188-19.261718-7.5 12.988281 40.867188 23.59375 103.191406-59.578125v-119.15625zm0 0"/><path d="m103.191406 309.851562-88.191406-50.917968v-101.835938l88.191406-50.917968 88.195313 50.917968v38.566406h15v-47.226562l-103.195313-59.578125-103.191406 59.578125v119.15625l103.191406 59.578125 40.867188-23.59375-7.5-12.988281zm0 0"/><path d="m208.925781 250.601562-7.519531-12.976562 12.976562-7.523438 7.523438 12.980469zm89.015625-3.074218-41.933594-24.210938-3.820312 2.214844-7.523438-12.980469 11.328126-6.5625 49.449218 28.546875zm-67.382812-9.460938-7.523438-12.976562 12.980469-7.523438 7.519531 12.980469zm0 0"/><path d="m361.734375 162.335938-7.519531-12.976563 12.976562-7.523437 7.523438 12.980468zm89.015625-3.074219-41.9375-24.210938-3.820312 2.214844-7.519532-12.980469 11.328125-6.5625 49.449219 28.550782zm-67.386719-9.460938-7.519531-12.976562 12.976562-7.523438 7.523438 12.976563zm0 0"/><path d="m208.925781 73.976562-7.523437-12.976562 12.980468-7.523438 7.519532 12.980469zm89.011719-3.074218-41.933594-24.210938-3.820312 2.214844-7.523438-12.976562 11.328125-6.566407 49.449219 28.550781zm-67.382812-9.460938-7.523438-12.976562 12.980469-7.523438 7.519531 12.980469zm0 0"/><path d="m56.121094 162.335938-7.523438-12.976563 12.980469-7.523437 7.519531 12.980468zm89.015625-3.074219-41.9375-24.210938-3.820313 2.214844-7.519531-12.980469 11.328125-6.5625 49.449219 28.550782zm-67.386719-9.460938-7.523438-12.976562 12.980469-7.523438 7.519531 12.976563zm0 0"/></svg>