<?xml version="1.0" encoding="iso-8859-1"?>
<!-- Generator: Adobe Illustrator 19.0.0, SVG Export Plug-In . SVG Version: 6.00 Build 0)  -->
<svg version="1.1" id="Capa_1" xmlns="http://www.w3.org/2000/svg" xmlns:xlink="http://www.w3.org/1999/xlink" x="0px" y="0px"
	 viewBox="0 0 511.999 511.999" style="enable-background:new 0 0 511.999 511.999;" xml:space="preserve">
<g>
	<g>
		<path d="M283.926,496.792h-55.649c-1.567,0-2.843-1.276-2.843-2.843v-57.857c0-2.237-0.984-4.36-2.692-5.805
			s-3.962-2.067-6.169-1.695l-55.95,9.372c-14.205-0.316-25.663-11.97-25.663-26.25v-70.648c0-4.194-3.397-7.596-7.59-7.604
			c-0.19,0-16.436-0.03-16.323-0.03c-4.193,0-7.596,3.396-7.604,7.59c-0.008,4.2,3.39,7.61,7.59,7.618l8.717,0.016v63.058
			c0,22.863,18.601,41.464,41.464,41.464c1.197,0-1.354,0.296,49.009-8.104v48.873c0,9.953,8.098,18.051,18.051,18.051h55.649
			c4.2,0,7.604-3.405,7.604-7.604S288.125,496.792,283.926,496.792z"/>
	</g>
</g>
<g>
	<g>
		<path d="M184.405,31.749c-2.345-3.485-7.069-4.409-10.555-2.063C125.411,62.28,96.493,116.551,96.492,174.86
			c0,9.041,0.708,18.155,2.105,27.122c-30.255,91.434-32.664,90.985-32.664,103.469c0,11.153,4.43,22.174,12.153,30.236
			c2.901,3.028,7.714,3.14,10.751,0.231c3.033-2.906,3.136-7.719,0.231-10.751c-7.029-7.338-9.958-18.383-6.41-28.846l30.947-91.243
			c0.402-1.188,0.506-2.459,0.299-3.697c-1.463-8.753-2.204-17.676-2.204-26.522c0-53.239,26.408-102.792,70.64-132.556
			C185.825,39.959,186.749,35.234,184.405,31.749z"/>
	</g>
</g>
<g>
	<g>
		<path d="M394.012,49.932C341.031-2.073,263.949-12.637,201.698,14.426c-3.852,1.674-5.617,6.153-3.942,10.005
			c1.674,3.851,6.152,5.617,10.005,3.942c33.143-14.407,59.604-12.673,64.515-13.161c106.169,0.6,185,102.092,150.23,211.427
			c-1.272,4.003,0.941,8.279,4.943,9.551c4.002,1.271,8.279-0.94,9.551-4.943C459.076,161.812,439.344,94.429,394.012,49.932z"/>
	</g>
</g>
<g>
	<g>
		<path d="M421.548,250.227c-3.708-1.968-8.312-0.56-10.283,3.149c-7.11,13.388-25.178,35.499-25.178,76.05v164.521
			c0,1.567-1.275,2.843-2.843,2.843h-68.902c-4.2,0-7.604,3.405-7.604,7.604c0,4.2,3.405,7.604,7.604,7.604h68.902
			c9.953,0,18.051-8.098,18.051-18.051v-164.52c0-35.881,15.662-54.343,23.403-68.918
			C426.667,256.8,425.258,252.197,421.548,250.227z"/>
	</g>
</g>
<g>
	<g>
		<path d="M185.164,221.92c-2.101-3.637-6.751-4.883-10.387-2.783l-18.44,10.646c-3.637,2.1-4.883,6.751-2.783,10.387
			c1.408,2.438,3.964,3.803,6.592,3.803c1.29,0,2.598-0.328,3.795-1.02l18.44-10.646
			C186.018,230.208,187.264,225.557,185.164,221.92z"/>
	</g>
</g>
<g>
	<g>
		<path d="M383.457,231.537l-18.44-10.645c-3.638-2.101-8.288-0.854-10.387,2.783s-0.854,8.288,2.783,10.387
			c18.418,10.259,18.709,11.666,22.235,11.666C387.408,245.728,390.174,235.415,383.457,231.537z"/>
	</g>
</g>
<g>
	<g>
		<path d="M332.923,111.637c-15.906-16.074-37.006-25.22-59.415-25.75c-48.753-1.126-88.741,38.15-88.741,86.623
			c0,24.408,10.378,47.812,28.474,64.213c7.966,7.221,12.536,17.776,12.536,28.957v49.297c0,8.818,5.434,16.381,13.127,19.541
			c1.269,16.831,15.36,30.141,32.511,30.141c17.15,0,31.241-13.309,32.511-30.141c7.696-3.16,13.13-10.724,13.13-19.542v-49.484
			c0-2.835,0.317-5.681,0.946-8.456c0.927-4.096-1.643-8.168-5.74-9.095c-4.098-0.93-8.168,1.644-9.095,5.74
			c-0.535,2.368-0.889,4.775-1.099,7.192h-9.441v-78.042h7.418c11.85,0,21.493-9.641,21.493-21.493
			c0-11.852-9.641-21.493-21.493-21.493h-1.135c-11.85,0-21.493,9.641-21.493,21.493v6.284h-12.002v-6.284
			c0-11.852-9.641-21.493-21.493-21.493h-1.134c-11.85,0-21.493,9.641-21.493,21.493c0,11.85,9.641,21.493,21.493,21.493h7.418
			v78.042h-9.442c-1.178-13.665-7.329-26.374-17.308-35.419c-14.922-13.523-23.48-32.822-23.48-52.945
			c0-39.392,32.047-71.439,71.438-71.439c0.579,0,1.16,0.007,1.738,0.02c37.918,0.897,69.183,32.491,69.696,70.429
			c0.004,0.332,0.007,0.661,0.007,0.992c0,19.712-7.858,38.068-22.126,51.684c-3.038,2.9-3.15,7.713-0.251,10.751
			c2.899,3.038,7.713,3.15,10.751,0.251C366.091,201.93,367.348,146.426,332.923,111.637z M292.627,161.34
			c0-8.397,13.702-8.413,13.702,0c0,3.465-2.819,6.284-6.284,6.284h-7.418V161.34z M271.417,349.45
			c-8.199,0-15.074-5.705-16.909-13.35h33.818C286.492,343.744,279.617,349.45,271.417,349.45z M301.848,314.977L301.848,314.977
			c-0.001,3.262-2.654,5.914-5.916,5.914h-49.028c-3.262,0-5.914-2.653-5.914-5.914v-8.786h60.858V314.977z M265.417,182.832h12.002
			v78.042h-12.002V182.832z M242.791,167.624c-3.464,0-6.284-2.819-6.284-6.284c0-8.397,13.702-8.413,13.702,0v6.284H242.791z
			 M240.988,276.083h60.858v14.9h-60.858V276.083z"/>
	</g>
</g>
<g>
	<g>
		<path d="M271.417,39.535c-4.2,0-7.604,3.405-7.604,7.604v21.292c0,4.2,3.405,7.604,7.604,7.604c4.2,0,7.604-3.405,7.604-7.604
			V47.139C279.022,42.94,275.617,39.535,271.417,39.535z"/>
	</g>
</g>
<g>
	<g>
		<path d="M225.144,78.25l-10.646-18.44c-2.1-3.637-6.75-4.883-10.387-2.783c-3.637,2.1-4.883,6.751-2.783,10.387l10.646,18.44
			c2.107,3.648,6.762,4.877,10.387,2.783C225.998,86.537,227.244,81.887,225.144,78.25z"/>
	</g>
</g>
<g>
	<g>
		<path d="M183.395,113.691l-18.44-10.646c-3.637-2.101-8.288-0.854-10.387,2.783s-0.854,8.288,2.783,10.387
			c18.418,10.259,18.709,11.666,22.235,11.666c2.628,0.001,5.184-1.364,6.592-3.803C188.278,120.441,187.032,115.79,183.395,113.691
			z"/>
	</g>
</g>
<g>
	<g>
		<path d="M164.958,165.258h-21.292c-4.2,0-7.604,3.405-7.604,7.604s3.405,7.604,7.604,7.604h21.292c4.2,0,7.604-3.405,7.604-7.604
			S169.158,165.258,164.958,165.258z"/>
	</g>
</g>
<g>
	<g>
		<path d="M397.141,167.286h-21.292c-4.2,0-7.604,3.405-7.604,7.604c0,4.2,3.405,7.604,7.604,7.604h21.292
			c4.2,0,7.604-3.405,7.604-7.604C404.745,170.691,401.34,167.286,397.141,167.286z"/>
	</g>
</g>
<g>
	<g>
		<path d="M387.254,107.584c-2.1-3.637-6.75-4.883-10.387-2.783l-18.44,10.646c-3.637,2.1-4.883,6.751-2.783,10.387
			c2.106,3.649,6.761,4.878,10.387,2.783l18.44-10.646C388.108,115.872,389.354,111.221,387.254,107.584z"/>
	</g>
</g>
<g>
	<g>
		<path d="M338.452,58.04c-3.638-2.101-8.289-0.854-10.387,2.783l-10.646,18.44c-2.1,3.637-0.854,8.288,2.783,10.387
			c3.623,2.093,8.279,0.869,10.387-2.783l10.646-18.44C343.335,64.79,342.089,60.14,338.452,58.04z"/>
	</g>
</g>
<g>
</g>
<g>
</g>
<g>
</g>
<g>
</g>
<g>
</g>
<g>
</g>
<g>
</g>
<g>
</g>
<g>
</g>
<g>
</g>
<g>
</g>
<g>
</g>
<g>
</g>
<g>
</g>
<g>
</g>
</svg>
