<svg id="Capa_1"  viewBox="0 0 512 512"  xmlns="http://www.w3.org/2000/svg"><g><path d="m281.132 268.708c0 4.142 3.358 7.5 7.5 7.5s7.5-3.358 7.5-7.5v-170.716c0-13.858 11.274-25.132 25.132-25.132s25.132 11.274 25.132 25.132v20.347c0 4.142 3.358 7.5 7.5 7.5s7.5-3.358 7.5-7.5v-20.347c0-22.129-18.003-40.132-40.132-40.132-9.506 0-18.249 3.321-25.132 8.865v-26.593c0-22.129-18.003-40.132-40.132-40.132s-40.132 18.003-40.132 40.132v26.593c-6.883-5.543-15.628-8.865-25.132-8.865-22.129 0-40.132 18.003-40.132 40.132v91.169c-11.838-14.157-29.627-23.179-49.481-23.179-8.702 0-15.782 7.08-15.782 15.782v51.479c0 4.142 3.358 7.5 7.5 7.5s7.5-3.358 7.5-7.5v-51.479c0-.431.351-.782.782-.782 27.284 0 49.481 22.197 49.481 49.481v38.245c0 4.142 3.358 7.5 7.5 7.5s7.5-3.358 7.5-7.5v-170.716c0-13.858 11.274-25.132 25.132-25.132s25.132 11.274 25.132 25.132v170.717c0 4.142 3.358 7.5 7.5 7.5s7.5-3.358 7.5-7.5v-228.577c0-13.858 11.274-25.132 25.132-25.132s25.132 11.274 25.132 25.132z"/><path d="m346.396 268.708c0 4.142 3.358 7.5 7.5 7.5s7.5-3.358 7.5-7.5v-38.245c0-27.284 22.197-49.481 49.482-49.481.431 0 .782.351.782.782v159.576c0 85.831-69.828 155.66-155.66 155.66s-155.66-69.829-155.66-155.66v-75.411c0-4.142-3.358-7.5-7.5-7.5s-7.5 3.358-7.5 7.5v75.411c0 94.102 76.558 170.66 170.66 170.66s170.66-76.558 170.66-170.66v-159.576c0-8.702-7.08-15.782-15.782-15.782-19.857 0-37.644 9.02-49.482 23.18v-38.136c0-4.142-3.358-7.5-7.5-7.5s-7.5 3.358-7.5 7.5z"/><path d="m319.353 348.746c2.055 4.475 3.65 9.216 4.716 14.168.872 4.049 4.861 6.622 8.911 5.753 4.049-.872 6.625-4.861 5.753-8.911-4.01-18.624-14.387-35.555-29.219-47.674-15.046-12.294-34.052-19.065-53.515-19.065-46.665 0-84.63 37.965-84.63 84.63s37.965 84.63 84.63 84.63c19.442 0 38.43-6.757 53.468-19.026 14.822-12.094 25.207-28.995 29.239-47.59.878-4.048-1.692-8.042-5.74-8.919-4.046-.879-8.042 1.691-8.919 5.74-1.066 4.916-2.656 9.621-4.697 14.066l-48.663-28.9zm-132.983 28.901c0-10.303 2.267-20.081 6.3-28.888l48.642 28.888-48.642 28.888c-4.033-8.806-6.3-18.584-6.3-28.888zm125.277-41.771-48.147 28.594v-56.027c19.349 2.122 36.726 12.329 48.147 27.433zm-63.147-27.449v56.043l-48.164-28.604c11.299-15.014 28.521-25.324 48.164-27.439zm-48.164 111.002 48.164-28.604v56.043c-19.643-2.114-36.865-12.424-48.164-27.439zm63.164 27.422v-56.026l48.145 28.593c-11.424 15.103-28.804 25.31-48.145 27.433z"/><path d="m125.588 91.057c0-18.058-14.691-32.749-32.749-32.749s-32.749 14.691-32.749 32.749 14.691 32.749 32.749 32.749c18.058-.001 32.749-14.692 32.749-32.749zm-50.497 0c0-9.787 7.962-17.749 17.749-17.749s17.749 7.962 17.749 17.749-7.962 17.749-17.749 17.749c-9.787-.001-17.749-7.963-17.749-17.749z"/><path d="m419.16 58.308c-18.058 0-32.749 14.691-32.749 32.749s14.691 32.749 32.749 32.749 32.749-14.691 32.749-32.749c0-18.059-14.691-32.749-32.749-32.749zm0 50.497c-9.787 0-17.749-7.962-17.749-17.749s7.962-17.749 17.749-17.749 17.749 7.962 17.749 17.749-7.962 17.749-17.749 17.749z"/></g></svg>