<?xml version="1.0" standalone="no"?>
<!DOCTYPE svg PUBLIC "-//W3C//DTD SVG 20010904//EN"
 "http://www.w3.org/TR/2001/REC-SVG-20010904/DTD/svg10.dtd">
<svg version="1.0" xmlns="http://www.w3.org/2000/svg"
 width="700.000000pt" height="700.000000pt" viewBox="0 0 700.000000 700.000000"
 preserveAspectRatio="xMidYMid meet">
<metadata>
Created by potrace 1.11, written by Peter Selinger 2001-2013
</metadata>
<g transform="translate(0.000000,700.000000) scale(0.100000,-0.100000)"
fill="#000000" stroke="none">
<path d="M6641 6493 c-27 -5 -2665 -2637 -2700 -2693 -23 -38 -26 -74 -11
-115 6 -15 306 -323 669 -685 706 -706 679 -683 761 -665 39 9 203 167 224
216 16 38 11 83 -12 119 -8 14 -233 242 -498 507 -351 351 -485 492 -494 517
-27 83 -90 15 1174 1278 639 640 1171 1176 1180 1191 21 30 23 95 6 127 -7 12
-52 62 -102 110 -99 97 -120 107 -197 93z"/>
<path d="M5097 6347 c-15 -7 -364 -348 -775 -758 -411 -411 -760 -753 -777
-761 -28 -15 -50 -15 -102 -3 -12 3 -207 191 -434 418 -227 226 -424 420 -438
429 -15 11 -45 18 -73 18 -53 0 -70 -12 -180 -124 -80 -81 -99 -126 -78 -184
17 -48 1160 -1193 1207 -1210 17 -6 40 -9 50 -7 10 2 27 4 38 4 12 1 365 346
942 924 703 701 925 930 932 955 9 32 8 52 -5 95 -9 30 -189 207 -211 208 -10
1 -29 3 -43 4 -14 2 -38 -2 -53 -8z"/>
<path d="M429 6308 c-53 -32 -188 -179 -198 -214 -22 -80 -70 -28 1089 -1189
593 -594 1084 -1091 1091 -1105 14 -29 13 -83 -3 -114 -6 -12 -479 -489 -1050
-1062 -572 -572 -1046 -1051 -1054 -1065 -34 -62 -14 -113 89 -218 94 -95 130
-115 191 -106 39 6 112 78 1249 1213 665 664 1215 1220 1224 1236 19 36 19
100 0 130 -33 50 -2484 2490 -2514 2502 -40 17 -77 14 -114 -8z"/>
<path d="M3437 3297 c-17 -11 -311 -299 -653 -641 -674 -674 -661 -659 -635
-738 11 -34 145 -180 194 -213 34 -22 100 -22 134 1 16 10 237 226 492 481
460 461 482 480 539 476 6 0 22 -1 34 -2 16 -1 364 -341 1143 -1120 616 -615
1130 -1124 1142 -1130 12 -6 42 -11 68 -11 43 0 49 4 131 82 47 46 95 96 106
111 25 35 28 106 6 139 -34 51 -2554 2562 -2585 2574 -41 17 -77 14 -116 -9z"/>
</g>
</svg>
